<?xml version="1.0" encoding="utf-8"?>
<!-- Generator: Adobe Illustrator 26.5.0, SVG Export Plug-In . SVG Version: 6.00 Build 0)  -->
<svg version="1.1" id="Layer_1" xmlns="http://www.w3.org/2000/svg" xmlns:xlink="http://www.w3.org/1999/xlink" x="0px" y="0px"
	 viewBox="0 0 32 32" style="enable-background:new 0 0 32 32;" xml:space="preserve">
<path d="M27.2,1.6H4.8C3,1.6,1.6,3,1.6,4.8v22.4c0,1.8,1.4,3.2,3.2,3.2h22.4c1.8,0,3.2-1.4,3.2-3.2V4.8C30.4,3,29,1.6,27.2,1.6z
	 M16,24.8c4.9,0,8.9-4,8.9-8.9c0-0.5-0.1-1.1-0.2-1.6h2.5v11.5c0,0.6-0.5,1.1-1.1,1.1c0,0,0,0,0,0H5.9c-0.6,0-1.1-0.5-1.1-1.1
	c0,0,0,0,0,0V14.4h2.5c-0.1,0.5-0.2,1-0.2,1.6C7.1,20.9,11.1,24.8,16,24.8z M10.4,16c0-3.1,2.5-5.5,5.5-5.5s5.5,2.5,5.5,5.5
	S19,21.5,16,21.5S10.4,19,10.4,16z M26.1,9.6h-2.6c-0.6,0-1.1-0.5-1.1-1.1V5.9c0-0.6,0.5-1.1,1.1-1.1h2.6c0.6,0,1.1,0.5,1.1,1.1v2.6
	C27.2,9.1,26.7,9.6,26.1,9.6z"/>
</svg>
